#!OML:ASF F:\VICON\USERDATA\INSTALL\rory3\rory3.ASF
:FULLY-SPECIFIED
:DEGREES
985
root 0.614844 18.8064 5.45202 -20.3814 -130.671 24.2434
lowerback 7.47632 -0.350711 0.00295123
upperback -4.80587 -1.03778 -4.47279
thorax -9.41771 -0.753592 -4.61726
lowerneck -16.6666 -8.33885 -14.1522
upperneck -10.1404 -9.42914 15.2036
head 1.06348 -4.57246 6.36945
rclavicle 7.91163e-014 -3.49861e-014
rhumerus 80.6802 -42.5137 -41.6507
rradius 24.4016
rwrist 27.9618
rhand -33.0986 -5.64116
rfingers 7.12502
rthumb -6.30937 -35.5272
lclavicle 7.91163e-014 -3.49861e-014
lhumerus -16.1411 -8.41297 30.9816
lradius 108.877
lwrist 2.88022
lhand -20.4964 16.266
lfingers 7.12502
lthumb 5.86057 46.165
rfemur -12.4616 2.1984 17.2889
rtibia 36.3997
rfoot 2.61734 -6.14476
rtoes 5.52153
lfemur -6.92595 -1.21653 -3.26342
ltibia 34.5298
lfoot 0.771369 -3.69681
ltoes -31.5363
986
root 0.596402 18.8695 5.45795 -20.315 -130.877 24.1198
lowerback 7.5206 -0.351011 -0.107412
upperback -4.78867 -1.0539 -4.4855
thorax -9.42458 -0.755131 -4.56545
lowerneck -16.8223 -8.30062 -14.0471
upperneck -9.89201 -9.38373 15.1188
head 1.14275 -4.54249 6.31919
rclavicle -6.75868e-015 -8.5875e-014
rhumerus 80.509 -42.5112 -41.5903
rradius 24.4385
rwrist 28.0398
rhand -33.1922 -5.61636
rfingers 7.12502
rthumb -6.39974 -35.4997
lclavicle -6.75868e-015 -8.5875e-014
lhumerus -18.3132 -7.81153 32.256
lradius 108.209
lwrist 3.07244
lhand -20.2648 16.7799
lfingers 7.12502
lthumb 6.08416 46.6725
rfemur -12.5725 1.96588 16.8677
rtibia 35.7408
rfoot 1.53279 -5.84025
rtoes 4.14719
lfemur -6.62409 -1.49986 -3.33008
ltibia 33.9187
lfoot 2.01957 -3.61342
ltoes -31.7868
987
root 0.575137 18.9354 5.46059 -20.2089 -131.188 24.0483
lowerback 7.4229 -0.322874 -0.134032
upperback -4.7649 -1.0154 -4.48339
thorax -9.33664 -0.733304 -4.55253
lowerneck -17.0472 -8.28524 -13.8808
upperneck -9.63348 -9.37504 14.9577
head 1.23127 -4.53197 6.22944
rclavicle 1.04958e-013 1.49486e-013
rhumerus 80.2218 -42.5587 -41.2741
rradius 24.4595
rwrist 27.956
rhand -33.4063 -5.69081
rfingers 7.12502
rthumb -6.60648 -35.5678
lclavicle 1.04958e-013 1.49486e-013
lhumerus -20.5366 -7.32003 33.3725
lradius 107.745
lwrist 3.93001
lhand -20.4542 17.8006
lfingers 7.12502
lthumb 5.90129 47.6984
rfemur -12.7858 1.84796 16.4751
rtibia 35.0332
rfoot 0.610375 -5.58246
rtoes 4.16815
lfemur -6.33244 -1.61672 -3.30281
ltibia 33.2627
lfoot 3.31486 -3.57439
ltoes -32.1737
988
root 0.555916 18.9951 5.46602 -20.0989 -131.545 24.0553
lowerback 7.34039 -0.272928 -0.00915888
upperback -4.80285 -0.936945 -4.50301
thorax -9.32587 -0.705212 -4.65719
lowerneck -17.0039 -8.24285 -13.6979
upperneck -9.56559 -9.35691 14.8622
head 1.22839 -4.52886 6.17111
rclavicle 9.54166e-014 -6.67916e-014
rhumerus 79.7404 -42.6351 -40.7376
rradius 24.4818
rwrist 27.8826
rhand -33.435 -5.63266
rfingers 7.12502
rthumb -6.63413 -35.5087
lclavicle 9.54166e-014 -6.67916e-014
lhumerus -22.6308 -6.90061 34.3292
lradius 107.277
lwrist 4.78026
lhand -20.2732 18.3406
lfingers 7.12502
lthumb 6.07605 48.2335
rfemur -13.103 1.68701 16.1109
rtibia 34.2978
rfoot -0.0833977 -5.1595
rtoes 3.94401
lfemur -6.10139 -1.73565 -3.15863
ltibia 32.5985
lfoot 4.69088 -3.44905
ltoes -32.0488
989
root 0.541345 19.047 5.47449 -20.0677 -131.844 24.102
lowerback 7.40847 -0.238593 0.158273
upperback -4.86975 -0.880164 -4.52735
thorax -9.43878 -0.692815 -4.79033
lowerneck -16.7354 -8.20042 -13.7033
upperneck -9.66765 -9.32368 14.962
head 1.16376 -4.52112 6.21667
rclavicle 3.81667e-014 -4.13472e-014
rhumerus 79.1781 -42.6893 -40.1842
rradius 24.5027
rwrist 27.9048
rhand -33.3624 -5.39468
rfingers 7.12502
rthumb -6.56409 -35.2729
lclavicle 3.81667e-014 -4.13472e-014
lhumerus -24.6176 -6.4485 35.2043
lradius 106.745
lwrist 5.57081
lhand -19.9664 18.4014
lfingers 7.12502
lthumb 6.37225 48.2855
rfemur -13.3714 1.62942 15.7174
rtibia 33.5372
rfoot -0.659021 -4.70842
rtoes 4.1021
lfemur -5.8803 -1.98741 -3.00917
ltibia 31.9241
lfoot 6.05909 -3.33907
ltoes -32.0203
990
root 0.524758 19.1016 5.48077 -20.0247 -132.256 24.244
lowerback 7.35447 -0.198318 0.382754
upperback -4.98967 -0.802529 -4.49626
thorax -9.53496 -0.672441 -4.8993
lowerneck -16.3627 -8.15143 -13.6323
upperneck -9.8061 -9.30331 14.955
head 1.06348 -4.52641 6.21905
rclavicle -9.93923e-015 -8.90555e-014
rhumerus 78.8699 -42.6475 -39.9449
rradius 24.4404
rwrist 27.9836
rhand -33.2063 -5.17547
rfingers 7.12502
rthumb -6.41334 -35.0584
lclavicle -9.93923e-015 -8.90555e-014
lhumerus -26.6526 -5.99943 36.0322
lradius 106.144
lwrist 5.9394
lhand -19.7397 18.4324
lfingers 7.12502
lthumb 6.59115 48.3098
rfemur -13.7366 2.01695 15.3754
rtibia 32.7576
rfoot -1.35445 -4.61938
rtoes 5.70014
lfemur -5.69642 -2.18232 -2.77249
ltibia 31.2296
lfoot 7.37117 -3.27783
ltoes -32.4975
991
root 0.499755 19.1625 5.48272 -19.7413 -132.816 24.159
lowerback 7.09083 -0.0888555 0.391265
upperback -5.13785 -0.644603 -4.36834
thorax -9.52395 -0.593315 -4.78977
lowerneck -15.9802 -8.09193 -13.715
upperneck -9.80722 -9.23776 14.8867
head 0.997864 -4.49785 6.22826
rclavicle -6.2816e-014 1.46306e-013
rhumerus 78.833 -42.4951 -39.7494
rradius 24.4558
rwrist 27.9066
rhand -32.7839 -5.05515
rfingers 7.12502
rthumb -6.00555 -34.95
lclavicle -6.2816e-014 1.46306e-013
lhumerus -28.7808 -5.50718 37.0193
lradius 105.428
lwrist 6.0536
lhand -20.1319 18.4315
lfingers 7.12502
lthumb 6.21247 48.3204
rfemur -14.188 2.49982 14.8917
rtibia 31.9654
rfoot -2.00682 -4.63129
rtoes 6.41665
lfemur -5.43458 -2.19856 -2.6242
ltibia 30.4944
lfoot 8.63898 -3.06514
ltoes -32.1715
992
root 0.470695 19.222 5.48113 -19.3121 -133.391 23.8561
lowerback 6.74071 0.103239 0.309782
upperback -5.11733 -0.370755 -4.23901
thorax -9.26518 -0.442798 -4.63809
lowerneck -16.1565 -8.20068 -14.103
upperneck -9.60443 -9.29926 14.9584
head 1.11243 -4.50467 6.29684
rclavicle -1.00983e-013 -4.45278e-014
rhumerus 79.1043 -42.6235 -39.6748
rradius 24.5992
rwrist 27.8379
rhand -32.0522 -5.02562
rfingers 7.12502
rthumb -5.29911 -34.9394
lclavicle -1.00983e-013 -4.45278e-014
lhumerus -30.5257 -4.79644 38.1737
lradius 104.602
lwrist 5.87405
lhand -20.2957 18.2203
lfingers 7.12502
lthumb 6.05435 48.1138
rfemur -14.631 3.01947 14.1958
rtibia 31.1173
rfoot -2.37216 -4.64868
rtoes 6.53286
lfemur -5.11232 -2.16414 -2.6306
ltibia 29.7362
lfoot 9.95092 -2.71089
ltoes -31.5255
993
root 0.450171 19.2738 5.48134 -19.1764 -133.671 23.727
lowerback 6.74023 0.251798 0.349533
upperback -4.98288 -0.138844 -4.125
thorax -9.09566 -0.317983 -4.56789
lowerneck -16.5747 -8.46032 -14.6441
upperneck -9.38675 -9.51301 15.1059
head 1.29865 -4.57771 6.39076
rclavicle -2.5842e-014 1.27222e-014
rhumerus 78.8919 -42.9806 -38.9637
rradius 24.8162
rwrist 27.3017
rhand -31.707 -4.97783
rfingers 7.12502
rthumb -4.96577 -34.8996
lclavicle -2.5842e-014 1.27222e-014
lhumerus -31.8739 -4.07192 39.395
lradius 103.624
lwrist 5.18947
lhand -20.0047 17.9932
lfingers 7.12502
lthumb 6.33525 47.8785
rfemur -14.8564 3.47772 13.4501
rtibia 30.2541
rfoot -2.86851 -4.85546
rtoes 7.74468
lfemur -4.7545 -2.31004 -2.61933
ltibia 28.9292
lfoot 11.3028 -2.60969
ltoes -31.8221
994
root 0.437371 19.3203 5.49106 -19.8051 -133.681 24.3335
lowerback 7.07846 0.129178 0.805388
upperback -4.96314 -0.237338 -4.01771
thorax -9.28442 -0.389181 -4.70375
lowerneck -16.4187 -8.38562 -14.5353
upperneck -9.31427 -9.44562 15.0433
head 1.27981 -4.54848 6.36295
rclavicle 1.59028e-014 -4.13472e-014
rhumerus 78.6093 -42.9657 -38.6142
rradius 24.86
rwrist 26.7806
rhand -31.7203 -4.64249
rfingers 7.12502
rthumb -4.97868 -34.564
lclavicle 1.59028e-014 -4.13472e-014
lhumerus -33.6099 -3.73976 40.1418
lradius 102.745
lwrist 4.47278
lhand -20.4159 18.1993
lfingers 7.12502
lthumb 5.93833 48.0961
rfemur -14.7522 3.9851 13.0919
rtibia 29.4104
rfoot -3.89914 -5.47995
rtoes 10.1035
lfemur -4.3345 -2.77994 -2.15964
ltibia 28.0808
lfoot 12.6196 -2.63849
ltoes -32.3932
995
root 0.422081 19.3647 5.50257 -20.3056 -133.671 24.7589
lowerback 7.33515 -0.0650394 1.08651
upperback -4.9645 -0.454081 -3.91953
thorax -9.45951 -0.509315 -4.72967
lowerneck -16.1 -8.13015 -14.277
upperneck -9.36397 -9.17704 14.9458
head 1.16553 -4.43108 6.32844
rclavicle -4.85035e-014 1.27222e-014
rhumerus 78.5159 -42.7643 -38.4594
rradius 24.9019
rwrist 26.2823
rhand -31.7835 -4.5153
rfingers 7.12502
rthumb -5.0397 -34.4354
lclavicle -4.85035e-014 1.27222e-014
lhumerus -35.5734 -3.51605 40.7491
lradius 101.9
lwrist 4.26502
lhand -21.3432 18.4867
lfingers 7.12502
lthumb 5.04298 48.4067
rfemur -14.664 4.59675 12.5382
rtibia 28.5914
rfoot -5.05251 -6.3705
rtoes 13.2624
lfemur -3.87504 -3.34698 -1.8716
ltibia 27.2215
lfoot 13.8358 -2.31614
ltoes -32.2047
996
root 0.403972 19.4084 5.50734 -20.4386 -133.765 24.805
lowerback 7.40101 -0.0597178 1.20157
upperback -4.64355 -0.38457 -3.71735
thorax -9.13678 -0.45466 -4.58134
lowerneck -16.808 -8.33169 -14.8466
upperneck -9.32738 -9.28394 15.0901
head 1.32425 -4.45219 6.43513
rclavicle -1.07344e-014 -2.54444e-014
rhumerus 78.8073 -43.1874 -38.1365
rradius 25.1311
rwrist 26.0898
rhand -31.6998 -4.61811
rfingers 7.12502
rthumb -4.95883 -34.5401
lclavicle -1.07344e-014 -2.54444e-014
lhumerus -36.7672 -2.8808 41.9185
lradius 100.931
lwrist 4.49211
lhand -21.3207 18.5494
lfingers 7.12502
lthumb 5.06466 48.4689
rfemur -14.7025 5.19163 11.7642
rtibia 27.8114
rfoot -6.011 -7.26991
rtoes 14.9536
lfemur -3.39594 -3.66357 -1.82763
ltibia 26.3385
lfoot 15.0296 -1.95957
ltoes -31.7096
997
root 0.382196 19.4494 5.51327 -20.4558 -134.04 24.8403
lowerback 7.54818 -0.0949438 1.35752
upperback -4.92755 -0.432254 -3.71918
thorax -9.54276 -0.503839 -4.67347
lowerneck -16.3193 -8.1234 -14.4703
upperneck -9.13415 -9.11419 14.98
head 1.26696 -4.3817 6.36493
rclavicle -3.57812e-015 -1.59028e-014
rhumerus 78.4436 -42.7477 -38.1034
rradius 25.2334
rwrist 26.2127
rhand -31.6482 -4.49797
rfingers 7.12502
rthumb -4.90901 -34.4211
lclavicle -3.57812e-015 -1.59028e-014
lhumerus -38.7612 -3.1061 42.3213
lradius 100.15
lwrist 5.26893
lhand -20.7666 18.7721
lfingers 7.12502
lthumb 5.59972 48.6781
rfemur -14.9089 5.67372 11.0543
rtibia 27.1289
rfoot -6.71761 -8.06016
rtoes 12.8782
lfemur -2.88476 -3.86708 -1.7544
ltibia 25.3736
lfoot 16.1543 -1.44128
ltoes -31.3312
998
root 0.358724 19.4851 5.51895 -20.2155 -134.372 24.6983
lowerback 7.29715 0.0407721 1.49412
upperback -4.64386 -0.194012 -3.55926
thorax -9.05838 -0.36924 -4.60495
lowerneck -17.176 -8.42785 -14.9455
upperneck -8.90968 -9.35829 15.0506
head 1.51224 -4.46623 6.40981
rclavicle -3.1408e-014 6.99722e-014
rhumerus 79.1632 -43.3115 -38.2407
rradius 25.2284
rwrist 26.6314
rhand -31.5874 -4.19308
rfingers 7.12502
rthumb -4.85033 -34.1176
lclavicle -3.1408e-014 6.99722e-014
lhumerus -39.6788 -2.70929 43.3421
lradius 99.1866
lwrist 6.28938
lhand -20.5657 18.6161
lfingers 7.12502
lthumb 5.79369 48.5169
rfemur -15.3163 6.25294 10.1768
rtibia 26.5101
rfoot -7.44625 -8.99337
rtoes 8.94624
lfemur -2.44201 -3.92314 -1.79291
ltibia 24.3771
lfoot 17.0622 -0.901696
ltoes -30.8187
999
root 0.337898 19.5172 5.52028 -20.1688 -134.566 24.6809
lowerback 7.28836 0.0123617 1.50989
upperback -4.91615 -0.248375 -3.56131
thorax -9.3574 -0.411504 -4.61383
lowerneck -16.3971 -8.13644 -14.4315
upperneck -8.98984 -9.13012 14.8109
head 1.30862 -4.38617 6.298
rclavicle -5.80451e-014 -2.54444e-014
rhumerus 78.5784 -42.9532 -37.6488
rradius 25.1981
rwrist 26.52
rhand -31.6513 -3.8604
rfingers 7.12502
rthumb -4.91207 -33.7835
lclavicle -5.80451e-014 -2.54444e-014
lhumerus -41.585 -3.28836 43.6365
lradius 98.3037
lwrist 7.51921
lhand -20.5629 18.3811
lfingers 7.12502
lthumb 5.79639 48.2818
rfemur -15.578 6.7924 9.33801
rtibia 25.8967
rfoot -8.42484 -10.2892
rtoes 7.20597
lfemur -1.9539 -4.0564 -1.78445
ltibia 23.3868
lfoot 17.8628 -0.559106
ltoes -30.01
